<svg width="99" height="41" viewBox="0 0 99 41" fill="none" xmlns="http://www.w3.org/2000/svg">
<path fill-rule="evenodd" clip-rule="evenodd" d="M33.8434 39.8949C59.2777 36.952 85.8406 43.2018 94.6198 32.8788C95.9207 31.3482 97.0014 29.4972 97.9083 27.3023C99.6723 23.0363 96.4885 20.461 94.2614 18.5099C87.5691 12.6641 73.5193 13.6524 67.6256 21.2545C65.4961 21.2545 70.9158 5.04014 56.0816 6.73819C44.6386 8.05041 45.061 18.1095 45.061 18.0495C45.061 12.1308 46.2518 1.23088 35.9801 0.0660861C25.9356 -1.07141 21.073 12.7678 21.073 19.0432C21.073 33.2028 20.5602 16.6954 9.24855 19.4163C-1.34078 21.9643 -12.1466 45.2166 33.8505 39.8949H33.8434Z" fill="#B9E3ED"/>
</svg>
