<svg width="71" height="100" viewBox="0 0 71 100" fill="none" xmlns="http://www.w3.org/2000/svg">
<path fill-rule="evenodd" clip-rule="evenodd" d="M51.0119 89.4274C59.8473 89.4408 68.497 87.1238 75.911 82.7576L29.1732 84.4184C35.8759 87.7216 43.3829 89.446 51.0083 89.434L51.0119 89.4274ZM28.4712 100L21.857 86.8365L48.2953 93.9945L28.4712 100ZM3.0493 74.1347L1.77693 54.9691L9.91207 78.9842L3.0493 74.1347ZM0.760483 28.4096L10.168 22.6367L0 41.3406L0.760483 28.4096ZM27.1988 4.16196L50.3282 2.08265L15.5061 12.9376L27.2061 4.16196H27.1988ZM75.7501 93.9945L82.6128 84.7572L65.0629 93.9945H75.7501ZM105 78.2934L99.1501 61.8946L91.7754 81.2928L104.996 78.3033L105 78.2934ZM100.664 29.5622L92.0204 20.0957L102.188 47.8077L100.664 29.5622ZM69.6478 0L65.838 4.15865L76.5106 7.85226L69.6478 0ZM76.7519 82.2494C80.6569 79.8401 84.1318 76.9006 87.0552 73.5335L80.2984 74.0118L27.3487 83.4751C27.6668 83.6478 27.9813 83.8072 28.303 83.9833L76.7519 82.266V82.2494ZM87.483 73.0153H85.717L84.6201 73.2146L87.4866 73.0153H87.483ZM88.2471 72.082C88.6347 71.5904 89.0149 71.0855 89.3805 70.5839L68.5583 72.6932L85.6658 72.5437L88.2471 72.082ZM89.7462 70.0724C90.8641 68.4763 91.8586 66.8115 92.7224 65.09L14.1716 72.5702C14.3361 72.7662 14.5007 72.9655 14.6689 73.1582L63.4139 72.733L89.7389 70.0757L89.7462 70.0724ZM92.971 64.5984L93.1538 64.2231L9.15525 64.8143C10.4342 67.3873 11.9973 69.8357 13.8206 72.1218L92.971 64.5851V64.5984ZM93.3768 63.7481C94.3112 61.7022 95.0643 59.5918 95.6291 57.437L52.0649 60.4265L8.50077 63.4159C8.63971 63.7248 8.78232 64.0337 8.92857 64.336L93.3878 63.7415L93.3768 63.7481ZM95.7534 56.9654L95.8923 56.3775L6.33992 57.2477C6.83746 59.1934 7.49249 61.1029 8.29966 62.9609L95.7534 56.982V56.9654ZM96.002 55.9058C96.5875 53.218 96.8826 50.4846 96.8832 47.7446C96.8835 46.2667 96.7969 44.7898 96.6236 43.3203L29.7143 50.093L6.0657 56.0353C6.12054 56.2845 6.17903 56.5303 6.24119 56.7761L96.0203 55.9191L96.002 55.9058ZM96.5651 42.8486C96.5395 42.6493 96.5139 42.45 96.4846 42.2507L60.562 42.3338L32.8697 49.3091L96.5651 42.8619V42.8486ZM96.4115 41.7791C95.986 39.0833 95.2696 36.432 94.2726 33.8637L62.4633 41.8588L96.4152 41.7791H96.4115ZM93.9106 32.9702L93.7205 32.5085L5.71105 41.2841C5.67083 41.5233 5.63425 41.7658 5.59769 42.0082L49.2679 41.9053L93.9289 32.9835L93.9106 32.9702ZM93.5158 32.0501C92.691 30.2118 91.7233 28.4291 90.62 26.7156L5.83901 40.477L5.78416 40.7859L93.534 32.0501H93.5158ZM90.3348 26.2805C89.589 25.1556 88.787 24.065 87.929 23.0087L53.8272 20.956L7.7805 33.7873C6.99615 35.8052 6.38495 37.8751 5.95238 39.9787L90.3458 26.2805H90.3348ZM87.5159 22.5271C84.8574 19.3574 81.7141 16.5488 78.1815 14.1865L55.2276 20.5806L87.5159 22.5271ZM77.644 13.8378C76.3369 12.9896 74.9822 12.2036 73.5856 11.4828L69.5272 11.8149L45.6336 20.0126L53.7578 20.5042L77.644 13.861V13.8378ZM72.7666 11.0709L72.3096 10.8517L71.3333 11.1838L72.7666 11.0709ZM71.6697 10.5594C71.0226 10.2604 70.3608 9.97476 69.6917 9.70239L60.445 12.0541L69.3992 11.3399L71.6697 10.5594ZM68.9349 9.40344C61.3512 6.47936 53.0411 5.46311 44.8763 6.46131C36.7115 7.45951 28.9928 10.4354 22.5298 15.0767L57.6297 12.2766L68.9312 9.40344H68.9349ZM21.8022 15.6115C20.6432 16.4818 19.528 17.4018 18.4714 18.3684L30.771 19.1092L54.9022 12.9708L21.7985 15.6115H21.8022ZM17.9924 18.8135C16.4617 20.2633 15.0456 21.8094 13.7548 23.4405L29.2865 19.4911L18.0143 18.8102L17.9924 18.8135ZM13.2612 24.055C11.3032 26.6193 9.66946 29.3759 8.39106 32.2726L43.1912 20.3149L30.8258 19.5708L13.2758 24.0384L13.2612 24.055ZM8.14246 32.8639L7.98157 33.2459L52.372 20.8663L44.4672 20.4046L8.15706 32.8606L8.14246 32.8639ZM5.48803 42.4965C5.24403 44.2471 5.12191 46.01 5.1224 47.7745C5.1224 48.7599 5.16138 49.7376 5.23938 50.7075L46.8365 42.4035L5.48803 42.5032V42.4965ZM5.27598 51.1825C5.30523 51.4914 5.33448 51.8003 5.36739 52.1059L29.59 49.6545L58.5767 42.3703L49.2935 42.3935L5.27598 51.1825ZM5.42951 52.5776C5.55748 53.594 5.72933 54.6037 5.93408 55.6002L26.409 50.4517L5.41854 52.5776H5.42951ZM15.0528 73.6631C16.1022 74.8654 17.2239 76.0142 18.4128 77.1042C31.6704 75.7092 45.2241 74.6064 58.2659 73.2844L15.071 73.6465L15.0528 73.6631ZM19.1075 77.7254V77.7453L80.1924 73.5435L82.8542 73.0718L63.4103 73.2412L19.0892 77.7254H19.1075ZM19.634 78.1838C21.8022 80.0278 24.1604 81.6785 26.6759 83.113L75.911 74.3008L19.656 78.1671L19.634 78.1838ZM57.7285 12.7483L32.3614 19.2055L44.3905 19.9329L67.6186 11.9611L57.7467 12.7483H57.7285ZM51.6883 41.9053L60.4633 41.882L94.0496 33.4418L51.7066 41.8986L51.6883 41.9053Z" fill="#EFBE37"/>
</svg>
