<svg width="325" height="147" viewBox="0 0 325 147" fill="none" xmlns="http://www.w3.org/2000/svg">
<path fill-rule="evenodd" clip-rule="evenodd" d="M161.843 103.895C187.278 100.952 213.841 107.202 222.62 96.8788C223.921 95.3481 225.001 93.4972 225.908 91.3023C227.672 87.0362 224.488 84.4609 222.261 82.5099C215.569 76.6641 201.519 77.6523 195.626 85.2544C193.496 85.2544 198.916 69.0401 184.081 70.7381C172.639 72.0504 173.061 82.1095 173.061 82.0494C173.061 76.1308 174.252 65.2308 163.98 64.066C153.935 62.9285 149.073 76.7678 149.073 83.0431C149.073 97.2027 148.56 80.6953 137.248 83.4162C126.659 85.9642 115.853 109.217 161.85 103.895H161.843Z" fill="#B9E3ED"/>
<path fill-rule="evenodd" clip-rule="evenodd" d="M33.8434 71.8949C59.2776 68.952 85.8406 75.2018 94.6197 64.8788C95.9205 63.3482 97.0013 61.4972 97.9082 59.3023C99.6722 55.0363 96.4884 52.461 94.2612 50.5099C87.5691 44.6641 73.5192 45.6523 67.6256 53.2545C65.496 53.2545 70.9158 37.0401 56.0815 38.7382C44.6386 40.0504 45.0609 50.1095 45.0609 50.0495C45.0609 44.1308 46.2517 33.2309 35.9801 32.0661C25.9356 30.9286 21.073 44.7678 21.073 51.0432C21.073 65.2028 20.5601 48.6954 9.24854 51.4163C-1.34078 53.9643 -12.1466 77.2166 33.8505 71.8949H33.8434Z" fill="#B9E3ED"/>
<path fill-rule="evenodd" clip-rule="evenodd" d="M288.303 131.458C301.346 131.478 314.115 128.072 325.059 121.654L256.065 124.095C265.959 128.951 277.041 131.486 288.298 131.468L288.303 131.458ZM255.029 147L245.265 127.65L284.293 138.172L255.029 147ZM217.501 108.978L215.623 80.8046L227.632 116.107L217.501 108.978ZM214.122 41.7621L228.01 33.2759L213 60.7707L214.122 41.7621ZM253.151 6.11805L287.294 3.06146L235.89 19.0183L253.161 6.11805H253.151ZM324.821 138.172L334.952 124.593L309.045 138.172H324.821ZM368 115.091L359.364 90.9851L348.478 119.5L367.995 115.106L368 115.091ZM361.599 43.4564L348.84 29.5406L363.849 70.2774L361.599 43.4564ZM315.813 -3.05176e-05L310.189 6.11318L325.944 11.5428L315.813 -3.05176e-05ZM326.3 120.907C332.065 117.365 337.194 113.044 341.51 108.094L331.536 108.797L253.372 122.708C253.841 122.962 254.306 123.197 254.781 123.455L326.3 120.931V120.907ZM342.141 107.333H339.534L337.915 107.625L342.147 107.333H342.141ZM343.269 105.96C343.842 105.238 344.403 104.496 344.943 103.758L314.205 106.859L339.459 106.639L343.269 105.96ZM345.482 103.006C347.133 100.66 348.601 98.2128 349.876 95.6823L233.92 106.678C234.163 106.966 234.406 107.259 234.654 107.542L306.611 106.918L345.472 103.011L345.482 103.006ZM350.243 94.9596L350.513 94.4079L226.515 95.277C228.403 99.0593 230.71 102.658 233.402 106.019L350.243 94.9401V94.9596ZM350.842 93.7097C352.221 90.7022 353.333 87.5999 354.167 84.4324L289.858 88.8269L225.549 93.2214C225.754 93.6755 225.964 94.1296 226.18 94.5739L350.858 93.6999L350.842 93.7097ZM354.35 83.7391L354.555 82.8748L222.359 84.1542C223.093 87.0142 224.06 89.8213 225.252 92.5525L354.35 83.7635V83.7391ZM354.717 82.1815C355.581 78.2304 356.017 74.2123 356.018 70.1846C356.018 68.012 355.891 65.841 355.635 63.6808L256.864 73.6367L221.954 82.3719C222.035 82.7381 222.121 83.0995 222.213 83.4608L354.744 82.201L354.717 82.1815ZM355.548 62.9874C355.511 62.6945 355.473 62.4015 355.43 62.1085L302.401 62.2306L261.522 72.4844L355.548 63.0069V62.9874ZM355.322 61.4152C354.693 57.4524 353.636 53.5551 352.164 49.7796L305.208 61.5324L355.327 61.4152H355.322ZM351.63 48.4661L351.349 47.7874L221.43 60.6876C221.371 61.0392 221.317 61.3957 221.263 61.7521L285.729 61.6007L351.657 48.4857L351.63 48.4661ZM351.047 47.1136C349.829 44.4113 348.401 41.7908 346.772 39.2719L221.619 59.5011L221.538 59.9552L351.074 47.1136H351.047ZM346.351 38.6323C345.25 36.9786 344.066 35.3755 342.8 33.8228L292.459 30.8052L224.485 49.6673C223.328 52.6336 222.425 55.6764 221.787 58.7687L346.367 38.6323H346.351ZM342.19 33.1148C338.265 28.4553 333.626 24.3267 328.411 20.8542L294.526 30.2535L342.19 33.1148ZM327.617 20.3415C325.688 19.0947 323.688 17.9392 321.626 16.8796L315.635 17.3679L280.364 29.4185L292.357 30.1412L327.617 20.3757V20.3415ZM320.417 16.2742L319.743 15.9519L318.301 16.4402L320.417 16.2742ZM318.798 15.5222C317.843 15.0828 316.866 14.6629 315.878 14.2625L302.228 17.7195L315.446 16.6697L318.798 15.5222ZM314.761 13.823C303.566 9.52462 291.299 8.03075 279.246 9.4981C267.193 10.9654 255.799 15.34 246.258 22.1628L298.072 18.0466L314.755 13.823H314.761ZM245.184 22.9489C243.473 24.2282 241.827 25.5807 240.267 27.0016L258.424 28.0904L294.046 19.0671L245.179 22.9489H245.184ZM239.56 27.6559C237.3 29.787 235.21 32.0599 233.305 34.4575L256.232 28.6519L239.592 27.651L239.56 27.6559ZM232.576 35.3608C229.686 39.1303 227.274 43.1826 225.387 47.4408L276.758 29.8629L258.505 28.7691L232.597 35.3364L232.576 35.3608ZM225.02 48.3099L224.782 48.8714L290.311 30.6734L278.642 29.9947L225.041 48.305L225.02 48.3099ZM221.101 62.4698C220.741 65.0432 220.561 67.6346 220.562 70.2285C220.562 71.6771 220.619 73.1143 220.734 74.54L282.139 62.3331L221.101 62.4796V62.4698ZM220.788 75.2383C220.831 75.6923 220.875 76.1464 220.923 76.5956L256.68 72.9922L299.47 62.2843L285.766 62.3185L220.788 75.2383ZM221.015 77.289C221.204 78.7831 221.457 80.2675 221.76 81.7323L251.985 74.164L220.999 77.289H221.015ZM235.221 108.285C236.77 110.052 238.426 111.741 240.181 113.343C259.751 111.292 279.759 109.671 299.011 107.728L235.248 108.26L235.221 108.285ZM241.206 114.256V114.286L331.379 108.109L335.308 107.416L306.606 107.665L241.179 114.256H241.206ZM241.983 114.93C245.184 117.641 248.665 120.067 252.379 122.176L325.059 109.222L242.016 114.906L241.983 114.93ZM298.218 18.74L260.772 28.232L278.529 29.3013L312.818 17.5828L298.245 18.74H298.218ZM289.302 61.6007L302.255 61.5666L351.835 49.1595L289.329 61.591L289.302 61.6007Z" fill="#EFBE37"/>
</svg>
